<mxfile host="app.diagrams.net" agent="Mozilla/5.0 (Windows NT 10.0; Win64; x64) AppleWebKit/537.36 (KHTML, like Gecko) Chrome/131.0.0.0 Safari/537.36" version="24.9.1">
  <diagram name="home" id="7uLCB-McLzuE__8pvXvz">
    <mxGraphModel dx="3833" dy="1663" grid="0" gridSize="10" guides="1" tooltips="1" connect="1" arrows="1" fold="1" page="0" pageScale="1" pageWidth="827" pageHeight="1169" math="0" shadow="0">
      <root>
        <mxCell id="0" />
        <mxCell id="1" parent="0" />
        <mxCell id="Ahu22lTs575YzdpguRpo-1" value="" style="strokeWidth=1;shadow=0;dashed=0;align=center;html=1;shape=mxgraph.mockup.containers.browserWindow;rSize=0;strokeColor=#666666;strokeColor2=#008cff;strokeColor3=#c4c4c4;mainText=,;recursiveResize=0;" parent="1" vertex="1">
          <mxGeometry x="91" y="237" width="1440" height="842" as="geometry" />
        </mxCell>
        <mxCell id="Ahu22lTs575YzdpguRpo-2" value="Immobili" style="strokeWidth=1;shadow=0;dashed=0;align=center;html=1;shape=mxgraph.mockup.containers.anchor;fontSize=17;fontColor=#666666;align=left;whiteSpace=wrap;" parent="Ahu22lTs575YzdpguRpo-1" vertex="1">
          <mxGeometry x="60" y="12" width="110" height="26" as="geometry" />
        </mxCell>
        <mxCell id="Ahu22lTs575YzdpguRpo-3" value="https://www.unina-estates25.it" style="strokeWidth=1;shadow=0;dashed=0;align=center;html=1;shape=mxgraph.mockup.containers.anchor;rSize=0;fontSize=17;fontColor=#666666;align=left;" parent="Ahu22lTs575YzdpguRpo-1" vertex="1">
          <mxGeometry x="130" y="63" width="250" height="23" as="geometry" />
        </mxCell>
        <mxCell id="Ahu22lTs575YzdpguRpo-4" value="" style="verticalLabelPosition=bottom;verticalAlign=top;html=1;shape=mxgraph.basic.rect;fillColor2=none;strokeWidth=1;size=20;indent=5;fillColor=#fff2cc;strokeColor=#d6b656;" parent="Ahu22lTs575YzdpguRpo-1" vertex="1">
          <mxGeometry x="2" y="111" width="1438" height="80" as="geometry" />
        </mxCell>
        <mxCell id="Ahu22lTs575YzdpguRpo-7" value="" style="group" parent="Ahu22lTs575YzdpguRpo-1" vertex="1" connectable="0">
          <mxGeometry x="1318" y="134" width="100" height="34" as="geometry" />
        </mxCell>
        <mxCell id="Ahu22lTs575YzdpguRpo-5" value="" style="sketch=0;outlineConnect=0;fontColor=#232F3E;gradientColor=none;fillColor=#232F3D;strokeColor=none;dashed=0;verticalLabelPosition=bottom;verticalAlign=top;align=center;html=1;fontSize=12;fontStyle=0;aspect=fixed;pointerEvents=1;shape=mxgraph.aws4.user;" parent="Ahu22lTs575YzdpguRpo-7" vertex="1">
          <mxGeometry width="25" height="25" as="geometry" />
        </mxCell>
        <mxCell id="Ahu22lTs575YzdpguRpo-6" value="&lt;font style=&quot;font-size: 18px;&quot;&gt;&lt;b&gt;Accedi&lt;/b&gt;&lt;/font&gt;" style="text;html=1;align=center;verticalAlign=middle;resizable=0;points=[];autosize=1;strokeColor=none;fillColor=none;" parent="Ahu22lTs575YzdpguRpo-7" vertex="1">
          <mxGeometry x="23" width="77" height="34" as="geometry" />
        </mxCell>
        <mxCell id="Ahu22lTs575YzdpguRpo-9" value="" style="verticalLabelPosition=bottom;shadow=0;dashed=0;align=center;html=1;verticalAlign=top;strokeWidth=1;shape=mxgraph.mockup.graphics.simpleIcon;strokeColor=#999999;" parent="Ahu22lTs575YzdpguRpo-1" vertex="1">
          <mxGeometry x="60" y="243" width="1333" height="559" as="geometry" />
        </mxCell>
        <mxCell id="Ahu22lTs575YzdpguRpo-10" value="" style="verticalLabelPosition=bottom;verticalAlign=top;html=1;shape=mxgraph.basic.rect;fillColor2=none;strokeWidth=1;size=20;indent=5;" parent="Ahu22lTs575YzdpguRpo-1" vertex="1">
          <mxGeometry x="150" y="526" width="1151" height="161" as="geometry" />
        </mxCell>
        <mxCell id="Ahu22lTs575YzdpguRpo-13" value="Vendita" style="strokeWidth=1;shadow=0;dashed=0;align=center;html=1;shape=mxgraph.mockup.buttons.button;strokeColor=#666666;fontColor=#ffffff;mainText=;buttonStyle=round;fontSize=17;fontStyle=1;fillColor=#008cff;whiteSpace=wrap;" parent="Ahu22lTs575YzdpguRpo-1" vertex="1">
          <mxGeometry x="227" y="553" width="150" height="50" as="geometry" />
        </mxCell>
        <mxCell id="Ahu22lTs575YzdpguRpo-14" value="Affitto" style="strokeWidth=1;shadow=0;dashed=0;align=center;html=1;shape=mxgraph.mockup.buttons.button;mainText=;buttonStyle=round;fontSize=17;fontStyle=1;whiteSpace=wrap;" parent="Ahu22lTs575YzdpguRpo-1" vertex="1">
          <mxGeometry x="398" y="553" width="150" height="50" as="geometry" />
        </mxCell>
        <mxCell id="Ahu22lTs575YzdpguRpo-15" value="Stanza" style="strokeWidth=1;shadow=0;dashed=0;align=center;html=1;shape=mxgraph.mockup.forms.comboBox;strokeColor=#999999;fillColor=#ddeeff;align=left;fillColor2=#aaddff;mainText=;fontColor=#666666;fontSize=17;spacingLeft=3;" parent="Ahu22lTs575YzdpguRpo-1" vertex="1">
          <mxGeometry x="581" y="553" width="206" height="50" as="geometry" />
        </mxCell>
        <mxCell id="Ahu22lTs575YzdpguRpo-18" value="" style="swimlane;strokeColor=#666666;swimlaneFillColor=#FFFFFF;fillColor=#ffffff;fontColor=#008CFF;fontStyle=0;childLayout=stackLayout;horizontal=1;startSize=0;horizontalStack=0;resizeParent=1;resizeParentMax=0;resizeLast=0;collapsible=0;marginBottom=0;whiteSpace=wrap;html=1;fontSize=17;" parent="Ahu22lTs575YzdpguRpo-1" vertex="1">
          <mxGeometry x="581" y="603" width="208" height="80" as="geometry" />
        </mxCell>
        <mxCell id="Ahu22lTs575YzdpguRpo-19" value="Casa" style="text;spacing=0;strokeColor=inherit;align=center;verticalAlign=middle;overflow=hidden;points=[[0,0.5],[1,0.5]];portConstraint=eastwest;rotatable=0;whiteSpace=wrap;html=1;fillColor=inherit;fontColor=#666666;fontStyle=1;fontSize=17;" parent="Ahu22lTs575YzdpguRpo-18" vertex="1">
          <mxGeometry width="208" height="26" as="geometry" />
        </mxCell>
        <mxCell id="Ahu22lTs575YzdpguRpo-20" value="Ufficio" style="text;spacing=0;strokeColor=inherit;align=center;verticalAlign=middle;overflow=hidden;points=[[0,0.5],[1,0.5]];portConstraint=eastwest;rotatable=0;whiteSpace=wrap;html=1;rSize=5;fillColor=inherit;fontStyle=1;fontColor=#666666;fontSize=17;" parent="Ahu22lTs575YzdpguRpo-18" vertex="1">
          <mxGeometry y="26" width="208" height="26" as="geometry" />
        </mxCell>
        <mxCell id="Ahu22lTs575YzdpguRpo-21" value="Stanza" style="text;spacing=0;strokeColor=#008CFF;align=center;verticalAlign=middle;overflow=hidden;points=[[0,0.5],[1,0.5]];portConstraint=eastwest;rotatable=0;whiteSpace=wrap;html=1;rSize=5;fillColor=#008CFF;fontStyle=1;fontColor=#ffffff;fontSize=17;" parent="Ahu22lTs575YzdpguRpo-18" vertex="1">
          <mxGeometry y="52" width="208" height="26" as="geometry" />
        </mxCell>
        <mxCell id="Ahu22lTs575YzdpguRpo-22" value="" style="text;spacing=0;strokeColor=inherit;align=center;verticalAlign=middle;overflow=hidden;points=[[0,0.5],[1,0.5]];portConstraint=eastwest;rotatable=0;whiteSpace=wrap;html=1;fillColor=inherit;fontStyle=1;fontColor=#666666;fontSize=17;" parent="Ahu22lTs575YzdpguRpo-18" vertex="1">
          <mxGeometry y="78" width="208" height="2" as="geometry" />
        </mxCell>
        <mxCell id="Ahu22lTs575YzdpguRpo-24" value="Search" style="strokeWidth=1;shadow=0;dashed=0;align=center;html=1;shape=mxgraph.mockup.forms.searchBox;strokeColor=#999999;mainText=;strokeColor2=#008cff;fontColor=#666666;fontSize=17;align=left;spacingLeft=3;whiteSpace=wrap;" parent="Ahu22lTs575YzdpguRpo-1" vertex="1">
          <mxGeometry x="828" y="553" width="296" height="50" as="geometry" />
        </mxCell>
        <mxCell id="Ahu22lTs575YzdpguRpo-25" value="Cerca" style="strokeWidth=1;shadow=0;dashed=0;align=center;html=1;shape=mxgraph.mockup.buttons.button;strokeColor=#666666;fontColor=#ffffff;mainText=;buttonStyle=round;fontSize=17;fontStyle=1;fillColor=#008cff;whiteSpace=wrap;" parent="Ahu22lTs575YzdpguRpo-1" vertex="1">
          <mxGeometry x="1131" y="553" width="150" height="50" as="geometry" />
        </mxCell>
        <mxCell id="Ahu22lTs575YzdpguRpo-32" value="" style="strokeWidth=1;shadow=0;dashed=0;align=center;html=1;shape=mxgraph.mockup.containers.browserWindow;rSize=0;strokeColor=#666666;strokeColor2=#008cff;strokeColor3=#c4c4c4;mainText=,;recursiveResize=0;" parent="1" vertex="1">
          <mxGeometry x="1657" y="237" width="1440" height="842" as="geometry" />
        </mxCell>
        <mxCell id="Ahu22lTs575YzdpguRpo-33" value="Immobili" style="strokeWidth=1;shadow=0;dashed=0;align=center;html=1;shape=mxgraph.mockup.containers.anchor;fontSize=17;fontColor=#666666;align=left;whiteSpace=wrap;" parent="Ahu22lTs575YzdpguRpo-32" vertex="1">
          <mxGeometry x="60" y="12" width="110" height="26" as="geometry" />
        </mxCell>
        <mxCell id="Ahu22lTs575YzdpguRpo-34" value="https://www.unina-estates25.it" style="strokeWidth=1;shadow=0;dashed=0;align=center;html=1;shape=mxgraph.mockup.containers.anchor;rSize=0;fontSize=17;fontColor=#666666;align=left;" parent="Ahu22lTs575YzdpguRpo-32" vertex="1">
          <mxGeometry x="130" y="60" width="250" height="26" as="geometry" />
        </mxCell>
        <mxCell id="Ahu22lTs575YzdpguRpo-35" value="" style="verticalLabelPosition=bottom;verticalAlign=top;html=1;shape=mxgraph.basic.rect;fillColor2=none;strokeWidth=1;size=20;indent=5;fillColor=#fff2cc;strokeColor=#d6b656;" parent="Ahu22lTs575YzdpguRpo-32" vertex="1">
          <mxGeometry x="2" y="111" width="1438" height="80" as="geometry" />
        </mxCell>
        <mxCell id="Ahu22lTs575YzdpguRpo-36" value="" style="group" parent="Ahu22lTs575YzdpguRpo-32" vertex="1" connectable="0">
          <mxGeometry x="1318" y="134" width="100" height="34" as="geometry" />
        </mxCell>
        <mxCell id="Ahu22lTs575YzdpguRpo-37" value="" style="sketch=0;outlineConnect=0;fontColor=#232F3E;gradientColor=none;fillColor=#232F3D;strokeColor=none;dashed=0;verticalLabelPosition=bottom;verticalAlign=top;align=center;html=1;fontSize=12;fontStyle=0;aspect=fixed;pointerEvents=1;shape=mxgraph.aws4.user;" parent="Ahu22lTs575YzdpguRpo-36" vertex="1">
          <mxGeometry width="25" height="25" as="geometry" />
        </mxCell>
        <mxCell id="Ahu22lTs575YzdpguRpo-38" value="&lt;font style=&quot;font-size: 18px;&quot;&gt;&lt;b&gt;Mario&lt;/b&gt;&lt;/font&gt;" style="text;html=1;align=center;verticalAlign=middle;resizable=0;points=[];autosize=1;strokeColor=none;fillColor=none;" parent="Ahu22lTs575YzdpguRpo-36" vertex="1">
          <mxGeometry x="29" width="66" height="34" as="geometry" />
        </mxCell>
        <mxCell id="Ahu22lTs575YzdpguRpo-39" value="" style="verticalLabelPosition=bottom;shadow=0;dashed=0;align=center;html=1;verticalAlign=top;strokeWidth=1;shape=mxgraph.mockup.graphics.simpleIcon;strokeColor=#999999;" parent="Ahu22lTs575YzdpguRpo-32" vertex="1">
          <mxGeometry x="60" y="243" width="1333" height="559" as="geometry" />
        </mxCell>
        <mxCell id="Ahu22lTs575YzdpguRpo-40" value="" style="verticalLabelPosition=bottom;verticalAlign=top;html=1;shape=mxgraph.basic.rect;fillColor2=none;strokeWidth=1;size=20;indent=5;" parent="Ahu22lTs575YzdpguRpo-32" vertex="1">
          <mxGeometry x="150" y="526" width="1151" height="161" as="geometry" />
        </mxCell>
        <mxCell id="Ahu22lTs575YzdpguRpo-41" value="Vendita" style="strokeWidth=1;shadow=0;dashed=0;align=center;html=1;shape=mxgraph.mockup.buttons.button;strokeColor=#666666;fontColor=#ffffff;mainText=;buttonStyle=round;fontSize=17;fontStyle=1;fillColor=#008cff;whiteSpace=wrap;" parent="Ahu22lTs575YzdpguRpo-32" vertex="1">
          <mxGeometry x="227" y="553" width="150" height="50" as="geometry" />
        </mxCell>
        <mxCell id="Ahu22lTs575YzdpguRpo-42" value="Affitto" style="strokeWidth=1;shadow=0;dashed=0;align=center;html=1;shape=mxgraph.mockup.buttons.button;mainText=;buttonStyle=round;fontSize=17;fontStyle=1;whiteSpace=wrap;" parent="Ahu22lTs575YzdpguRpo-32" vertex="1">
          <mxGeometry x="398" y="553" width="150" height="50" as="geometry" />
        </mxCell>
        <mxCell id="Ahu22lTs575YzdpguRpo-43" value="Stanza" style="strokeWidth=1;shadow=0;dashed=0;align=center;html=1;shape=mxgraph.mockup.forms.comboBox;strokeColor=#999999;fillColor=#ddeeff;align=left;fillColor2=#aaddff;mainText=;fontColor=#666666;fontSize=17;spacingLeft=3;" parent="Ahu22lTs575YzdpguRpo-32" vertex="1">
          <mxGeometry x="581" y="553" width="206" height="50" as="geometry" />
        </mxCell>
        <mxCell id="Ahu22lTs575YzdpguRpo-44" value="" style="swimlane;strokeColor=#666666;swimlaneFillColor=#FFFFFF;fillColor=#ffffff;fontColor=#008CFF;fontStyle=0;childLayout=stackLayout;horizontal=1;startSize=0;horizontalStack=0;resizeParent=1;resizeParentMax=0;resizeLast=0;collapsible=0;marginBottom=0;whiteSpace=wrap;html=1;fontSize=17;" parent="Ahu22lTs575YzdpguRpo-32" vertex="1">
          <mxGeometry x="581" y="603" width="208" height="80" as="geometry" />
        </mxCell>
        <mxCell id="Ahu22lTs575YzdpguRpo-45" value="Casa" style="text;spacing=0;strokeColor=inherit;align=center;verticalAlign=middle;overflow=hidden;points=[[0,0.5],[1,0.5]];portConstraint=eastwest;rotatable=0;whiteSpace=wrap;html=1;fillColor=inherit;fontColor=#666666;fontStyle=1;fontSize=17;" parent="Ahu22lTs575YzdpguRpo-44" vertex="1">
          <mxGeometry width="208" height="26" as="geometry" />
        </mxCell>
        <mxCell id="Ahu22lTs575YzdpguRpo-46" value="Ufficio" style="text;spacing=0;strokeColor=inherit;align=center;verticalAlign=middle;overflow=hidden;points=[[0,0.5],[1,0.5]];portConstraint=eastwest;rotatable=0;whiteSpace=wrap;html=1;rSize=5;fillColor=inherit;fontStyle=1;fontColor=#666666;fontSize=17;" parent="Ahu22lTs575YzdpguRpo-44" vertex="1">
          <mxGeometry y="26" width="208" height="26" as="geometry" />
        </mxCell>
        <mxCell id="Ahu22lTs575YzdpguRpo-47" value="Stanza" style="text;spacing=0;strokeColor=#008CFF;align=center;verticalAlign=middle;overflow=hidden;points=[[0,0.5],[1,0.5]];portConstraint=eastwest;rotatable=0;whiteSpace=wrap;html=1;rSize=5;fillColor=#008CFF;fontStyle=1;fontColor=#ffffff;fontSize=17;" parent="Ahu22lTs575YzdpguRpo-44" vertex="1">
          <mxGeometry y="52" width="208" height="26" as="geometry" />
        </mxCell>
        <mxCell id="Ahu22lTs575YzdpguRpo-48" value="" style="text;spacing=0;strokeColor=inherit;align=center;verticalAlign=middle;overflow=hidden;points=[[0,0.5],[1,0.5]];portConstraint=eastwest;rotatable=0;whiteSpace=wrap;html=1;fillColor=inherit;fontStyle=1;fontColor=#666666;fontSize=17;" parent="Ahu22lTs575YzdpguRpo-44" vertex="1">
          <mxGeometry y="78" width="208" height="2" as="geometry" />
        </mxCell>
        <mxCell id="Ahu22lTs575YzdpguRpo-49" value="Search" style="strokeWidth=1;shadow=0;dashed=0;align=center;html=1;shape=mxgraph.mockup.forms.searchBox;strokeColor=#999999;mainText=;strokeColor2=#008cff;fontColor=#666666;fontSize=17;align=left;spacingLeft=3;whiteSpace=wrap;" parent="Ahu22lTs575YzdpguRpo-32" vertex="1">
          <mxGeometry x="828" y="553" width="296" height="50" as="geometry" />
        </mxCell>
        <mxCell id="Ahu22lTs575YzdpguRpo-50" value="Cerca" style="strokeWidth=1;shadow=0;dashed=0;align=center;html=1;shape=mxgraph.mockup.buttons.button;strokeColor=#666666;fontColor=#ffffff;mainText=;buttonStyle=round;fontSize=17;fontStyle=1;fillColor=#008cff;whiteSpace=wrap;" parent="Ahu22lTs575YzdpguRpo-32" vertex="1">
          <mxGeometry x="1131" y="553" width="150" height="50" as="geometry" />
        </mxCell>
        <mxCell id="Ahu22lTs575YzdpguRpo-58" value="" style="group" parent="Ahu22lTs575YzdpguRpo-32" vertex="1" connectable="0">
          <mxGeometry x="1131" y="134" width="161" height="34" as="geometry" />
        </mxCell>
        <mxCell id="Ahu22lTs575YzdpguRpo-53" value="&lt;font style=&quot;font-size: 18px;&quot;&gt;&lt;b&gt;I miei preferiti&lt;/b&gt;&lt;/font&gt;" style="text;html=1;align=center;verticalAlign=middle;resizable=0;points=[];autosize=1;strokeColor=none;fillColor=none;" parent="Ahu22lTs575YzdpguRpo-58" vertex="1">
          <mxGeometry x="25" width="136" height="34" as="geometry" />
        </mxCell>
        <mxCell id="Ahu22lTs575YzdpguRpo-55" value="" style="verticalLabelPosition=bottom;verticalAlign=top;html=1;shape=mxgraph.basic.heart;aspect=fixed;fillColor=#f8cecc;strokeColor=#b85450;" parent="Ahu22lTs575YzdpguRpo-58" vertex="1">
          <mxGeometry width="25" height="25" as="geometry" />
        </mxCell>
        <mxCell id="Ahu22lTs575YzdpguRpo-61" value="&lt;font style=&quot;font-size: 24px;&quot;&gt;UTENTE NON LOGGATO&lt;/font&gt;" style="text;html=1;align=center;verticalAlign=middle;resizable=0;points=[];autosize=1;strokeColor=none;fillColor=none;" parent="1" vertex="1">
          <mxGeometry x="662.5" y="154" width="297" height="41" as="geometry" />
        </mxCell>
        <mxCell id="Ahu22lTs575YzdpguRpo-62" value="&lt;font style=&quot;font-size: 24px;&quot;&gt;UTENTE LOGGATO&lt;/font&gt;" style="text;html=1;align=center;verticalAlign=middle;resizable=0;points=[];autosize=1;strokeColor=none;fillColor=none;" parent="1" vertex="1">
          <mxGeometry x="2258.5" y="120" width="237" height="41" as="geometry" />
        </mxCell>
        <mxCell id="OI2a_IwAasmnU9GuNSPJ-111" value="" style="strokeWidth=1;shadow=0;dashed=0;align=center;html=1;shape=mxgraph.mockup.containers.browserWindow;rSize=0;strokeColor=#666666;strokeColor2=#008cff;strokeColor3=#c4c4c4;mainText=,;recursiveResize=0;" vertex="1" parent="1">
          <mxGeometry x="1659" y="1193" width="1440" height="843" as="geometry" />
        </mxCell>
        <mxCell id="OI2a_IwAasmnU9GuNSPJ-112" value="Immobili" style="strokeWidth=1;shadow=0;dashed=0;align=center;html=1;shape=mxgraph.mockup.containers.anchor;fontSize=17;fontColor=#666666;align=left;whiteSpace=wrap;" vertex="1" parent="OI2a_IwAasmnU9GuNSPJ-111">
          <mxGeometry x="60" y="12" width="110" height="26" as="geometry" />
        </mxCell>
        <mxCell id="OI2a_IwAasmnU9GuNSPJ-113" value="https://www.unina-estates25.it/profilo/" style="strokeWidth=1;shadow=0;dashed=0;align=center;html=1;shape=mxgraph.mockup.containers.anchor;rSize=0;fontSize=17;fontColor=#666666;align=left;" vertex="1" parent="OI2a_IwAasmnU9GuNSPJ-111">
          <mxGeometry x="130" y="60" width="250" height="26" as="geometry" />
        </mxCell>
        <mxCell id="OI2a_IwAasmnU9GuNSPJ-114" value="" style="verticalLabelPosition=bottom;verticalAlign=top;html=1;shape=mxgraph.basic.rect;fillColor2=none;strokeWidth=1;size=20;indent=5;fillColor=#fff2cc;strokeColor=#d6b656;" vertex="1" parent="OI2a_IwAasmnU9GuNSPJ-111">
          <mxGeometry x="2" y="111" width="1438" height="80" as="geometry" />
        </mxCell>
        <mxCell id="OI2a_IwAasmnU9GuNSPJ-116" value="" style="rounded=0;whiteSpace=wrap;html=1;" vertex="1" parent="OI2a_IwAasmnU9GuNSPJ-111">
          <mxGeometry x="60" y="232.25" width="328" height="367" as="geometry" />
        </mxCell>
        <mxCell id="OI2a_IwAasmnU9GuNSPJ-117" value="" style="sketch=0;outlineConnect=0;fontColor=#232F3E;gradientColor=none;fillColor=#008CFF;strokeColor=none;dashed=0;verticalLabelPosition=bottom;verticalAlign=top;align=center;html=1;fontSize=12;fontStyle=0;aspect=fixed;pointerEvents=1;shape=mxgraph.aws4.user;" vertex="1" parent="OI2a_IwAasmnU9GuNSPJ-111">
          <mxGeometry x="133" y="312" width="182" height="182" as="geometry" />
        </mxCell>
        <mxCell id="OI2a_IwAasmnU9GuNSPJ-118" value="" style="whiteSpace=wrap;html=1;aspect=fixed;" vertex="1" parent="OI2a_IwAasmnU9GuNSPJ-111">
          <mxGeometry x="319.5" y="529.75" width="60.5" height="60.5" as="geometry" />
        </mxCell>
        <mxCell id="OI2a_IwAasmnU9GuNSPJ-119" value="" style="shape=image;html=1;verticalAlign=top;verticalLabelPosition=bottom;labelBackgroundColor=#ffffff;imageAspect=0;aspect=fixed;image=https://cdn4.iconfinder.com/data/icons/48-bubbles/48/25.Camera-Front-128.png" vertex="1" parent="OI2a_IwAasmnU9GuNSPJ-111">
          <mxGeometry x="325.5" y="535.75" width="48.5" height="48.5" as="geometry" />
        </mxCell>
        <mxCell id="OI2a_IwAasmnU9GuNSPJ-120" value="" style="verticalLabelPosition=bottom;shadow=0;dashed=0;align=center;html=1;verticalAlign=top;strokeWidth=1;shape=mxgraph.mockup.navigation.scrollBar;strokeColor=#999999;barPos=94.294;fillColor2=#99ddff;strokeColor2=none;direction=north;" vertex="1" parent="OI2a_IwAasmnU9GuNSPJ-111">
          <mxGeometry x="1406" y="199" width="20" height="635" as="geometry" />
        </mxCell>
        <mxCell id="OI2a_IwAasmnU9GuNSPJ-121" value="&lt;font style=&quot;font-size: 24px;&quot;&gt;&lt;b style=&quot;&quot;&gt;INFORMAZIONI PROFILO&lt;/b&gt;&lt;/font&gt;" style="text;html=1;align=center;verticalAlign=middle;whiteSpace=wrap;rounded=0;" vertex="1" parent="OI2a_IwAasmnU9GuNSPJ-111">
          <mxGeometry x="506" y="232.25" width="296" height="30" as="geometry" />
        </mxCell>
        <mxCell id="OI2a_IwAasmnU9GuNSPJ-122" value="&lt;b&gt;&lt;font style=&quot;font-size: 18px;&quot;&gt;NOME&lt;/font&gt;&lt;/b&gt;" style="text;html=1;align=center;verticalAlign=middle;whiteSpace=wrap;rounded=0;" vertex="1" parent="OI2a_IwAasmnU9GuNSPJ-111">
          <mxGeometry x="506" y="287" width="60" height="30" as="geometry" />
        </mxCell>
        <mxCell id="OI2a_IwAasmnU9GuNSPJ-135" value="" style="rounded=0;whiteSpace=wrap;html=1;" vertex="1" parent="OI2a_IwAasmnU9GuNSPJ-111">
          <mxGeometry x="509" y="321" width="310" height="44" as="geometry" />
        </mxCell>
        <mxCell id="OI2a_IwAasmnU9GuNSPJ-136" value="" style="rounded=0;whiteSpace=wrap;html=1;" vertex="1" parent="OI2a_IwAasmnU9GuNSPJ-111">
          <mxGeometry x="509" y="436.5" width="310" height="44" as="geometry" />
        </mxCell>
        <mxCell id="OI2a_IwAasmnU9GuNSPJ-137" value="&lt;b&gt;&lt;font style=&quot;font-size: 18px;&quot;&gt;COGNOME&lt;/font&gt;&lt;/b&gt;" style="text;html=1;align=center;verticalAlign=middle;whiteSpace=wrap;rounded=0;" vertex="1" parent="OI2a_IwAasmnU9GuNSPJ-111">
          <mxGeometry x="506" y="400.75" width="104" height="30" as="geometry" />
        </mxCell>
        <mxCell id="OI2a_IwAasmnU9GuNSPJ-153" value="&lt;span style=&quot;font-size: 18px;&quot;&gt;&lt;b&gt;DATA DI NASCITA&lt;/b&gt;&lt;/span&gt;" style="text;html=1;align=center;verticalAlign=middle;whiteSpace=wrap;rounded=0;" vertex="1" parent="OI2a_IwAasmnU9GuNSPJ-111">
          <mxGeometry x="509" y="524" width="162" height="30" as="geometry" />
        </mxCell>
        <mxCell id="OI2a_IwAasmnU9GuNSPJ-154" value="Giorno&lt;span style=&quot;color: rgba(0, 0, 0, 0); font-family: monospace; font-size: 0px;&quot;&gt;%3CmxGraphModel%3E%3Croot%3E%3CmxCell%20id%3D%220%22%2F%3E%3CmxCell%20id%3D%221%22%20parent%3D%220%22%2F%3E%3CmxCell%20id%3D%222%22%20value%3D%22Stanza%22%20style%3D%22strokeWidth%3D1%3Bshadow%3D0%3Bdashed%3D0%3Balign%3Dcenter%3Bhtml%3D1%3Bshape%3Dmxgraph.mockup.forms.comboBox%3BstrokeColor%3D%23999999%3BfillColor%3D%23ddeeff%3Balign%3Dleft%3BfillColor2%3D%23aaddff%3BmainText%3D%3BfontColor%3D%23666666%3BfontSize%3D17%3BspacingLeft%3D3%3B%22%20vertex%3D%221%22%20parent%3D%221%22%3E%3CmxGeometry%20x%3D%222238%22%20y%3D%22790%22%20width%3D%22206%22%20height%3D%2250%22%20as%3D%22geometry%22%2F%3E%3C%2FmxCell%3E%3C%2Froot%3E%3C%2FmxGraphModel%3E&lt;/span&gt;" style="strokeWidth=1;shadow=0;dashed=0;align=center;html=1;shape=mxgraph.mockup.forms.comboBox;strokeColor=#999999;fillColor=#ddeeff;align=left;fillColor2=#aaddff;mainText=;fontColor=#666666;fontSize=17;spacingLeft=3;" vertex="1" parent="OI2a_IwAasmnU9GuNSPJ-111">
          <mxGeometry x="509" y="560.25" width="112" height="39" as="geometry" />
        </mxCell>
        <mxCell id="OI2a_IwAasmnU9GuNSPJ-155" value="Mese" style="strokeWidth=1;shadow=0;dashed=0;align=center;html=1;shape=mxgraph.mockup.forms.comboBox;strokeColor=#999999;fillColor=#ddeeff;align=left;fillColor2=#aaddff;mainText=;fontColor=#666666;fontSize=17;spacingLeft=3;" vertex="1" parent="OI2a_IwAasmnU9GuNSPJ-111">
          <mxGeometry x="639" y="560.25" width="136" height="39" as="geometry" />
        </mxCell>
        <mxCell id="OI2a_IwAasmnU9GuNSPJ-156" value="Anno" style="strokeWidth=1;shadow=0;dashed=0;align=center;html=1;shape=mxgraph.mockup.forms.comboBox;strokeColor=#999999;fillColor=#ddeeff;align=left;fillColor2=#aaddff;mainText=;fontColor=#666666;fontSize=17;spacingLeft=3;" vertex="1" parent="OI2a_IwAasmnU9GuNSPJ-111">
          <mxGeometry x="796" y="560.25" width="136" height="39" as="geometry" />
        </mxCell>
        <mxCell id="OI2a_IwAasmnU9GuNSPJ-157" value="&lt;b&gt;&lt;font style=&quot;font-size: 18px;&quot;&gt;EMAIL&lt;/font&gt;&lt;/b&gt;" style="text;html=1;align=center;verticalAlign=middle;whiteSpace=wrap;rounded=0;" vertex="1" parent="OI2a_IwAasmnU9GuNSPJ-111">
          <mxGeometry x="514" y="644" width="63" height="30" as="geometry" />
        </mxCell>
        <mxCell id="OI2a_IwAasmnU9GuNSPJ-158" value="" style="rounded=0;whiteSpace=wrap;html=1;" vertex="1" parent="OI2a_IwAasmnU9GuNSPJ-111">
          <mxGeometry x="514" y="674" width="310" height="44" as="geometry" />
        </mxCell>
        <mxCell id="OI2a_IwAasmnU9GuNSPJ-303" value="" style="group" vertex="1" connectable="0" parent="OI2a_IwAasmnU9GuNSPJ-111">
          <mxGeometry x="1321" y="130" width="100" height="34" as="geometry" />
        </mxCell>
        <mxCell id="OI2a_IwAasmnU9GuNSPJ-304" value="" style="sketch=0;outlineConnect=0;fontColor=#232F3E;gradientColor=none;fillColor=#232F3D;strokeColor=none;dashed=0;verticalLabelPosition=bottom;verticalAlign=top;align=center;html=1;fontSize=12;fontStyle=0;aspect=fixed;pointerEvents=1;shape=mxgraph.aws4.user;" vertex="1" parent="OI2a_IwAasmnU9GuNSPJ-303">
          <mxGeometry width="25" height="25" as="geometry" />
        </mxCell>
        <mxCell id="OI2a_IwAasmnU9GuNSPJ-305" value="&lt;font style=&quot;font-size: 18px;&quot;&gt;&lt;b&gt;Mario&lt;/b&gt;&lt;/font&gt;" style="text;html=1;align=center;verticalAlign=middle;resizable=0;points=[];autosize=1;strokeColor=none;fillColor=none;" vertex="1" parent="OI2a_IwAasmnU9GuNSPJ-303">
          <mxGeometry x="29" width="66" height="34" as="geometry" />
        </mxCell>
        <mxCell id="OI2a_IwAasmnU9GuNSPJ-306" value="" style="group" vertex="1" connectable="0" parent="OI2a_IwAasmnU9GuNSPJ-111">
          <mxGeometry x="1134" y="130" width="161" height="34" as="geometry" />
        </mxCell>
        <mxCell id="OI2a_IwAasmnU9GuNSPJ-307" value="&lt;font style=&quot;font-size: 18px;&quot;&gt;&lt;b&gt;I miei preferiti&lt;/b&gt;&lt;/font&gt;" style="text;html=1;align=center;verticalAlign=middle;resizable=0;points=[];autosize=1;strokeColor=none;fillColor=none;" vertex="1" parent="OI2a_IwAasmnU9GuNSPJ-306">
          <mxGeometry x="25" width="136" height="34" as="geometry" />
        </mxCell>
        <mxCell id="OI2a_IwAasmnU9GuNSPJ-308" value="" style="verticalLabelPosition=bottom;verticalAlign=top;html=1;shape=mxgraph.basic.heart;aspect=fixed;fillColor=#f8cecc;strokeColor=#b85450;" vertex="1" parent="OI2a_IwAasmnU9GuNSPJ-306">
          <mxGeometry width="25" height="25" as="geometry" />
        </mxCell>
        <mxCell id="OI2a_IwAasmnU9GuNSPJ-315" value="" style="image;html=1;image=img/lib/atlassian/Atlassian_Logo.svg;" vertex="1" parent="OI2a_IwAasmnU9GuNSPJ-111">
          <mxGeometry x="12" y="122.5" width="50" height="49" as="geometry" />
        </mxCell>
        <mxCell id="OI2a_IwAasmnU9GuNSPJ-159" value="" style="strokeWidth=1;shadow=0;dashed=0;align=center;html=1;shape=mxgraph.mockup.containers.browserWindow;rSize=0;strokeColor=#666666;strokeColor2=#008cff;strokeColor3=#c4c4c4;mainText=,;recursiveResize=0;" vertex="1" parent="1">
          <mxGeometry x="3216" y="1193" width="1440" height="843" as="geometry" />
        </mxCell>
        <mxCell id="OI2a_IwAasmnU9GuNSPJ-160" value="Immobili" style="strokeWidth=1;shadow=0;dashed=0;align=center;html=1;shape=mxgraph.mockup.containers.anchor;fontSize=17;fontColor=#666666;align=left;whiteSpace=wrap;" vertex="1" parent="OI2a_IwAasmnU9GuNSPJ-159">
          <mxGeometry x="60" y="12" width="110" height="26" as="geometry" />
        </mxCell>
        <mxCell id="OI2a_IwAasmnU9GuNSPJ-161" value="https://www.unina-estates25.it/profilo/" style="strokeWidth=1;shadow=0;dashed=0;align=center;html=1;shape=mxgraph.mockup.containers.anchor;rSize=0;fontSize=17;fontColor=#666666;align=left;" vertex="1" parent="OI2a_IwAasmnU9GuNSPJ-159">
          <mxGeometry x="130" y="60" width="250" height="26" as="geometry" />
        </mxCell>
        <mxCell id="OI2a_IwAasmnU9GuNSPJ-162" value="" style="verticalLabelPosition=bottom;verticalAlign=top;html=1;shape=mxgraph.basic.rect;fillColor2=none;strokeWidth=1;size=20;indent=5;fillColor=#fff2cc;strokeColor=#d6b656;" vertex="1" parent="OI2a_IwAasmnU9GuNSPJ-159">
          <mxGeometry x="2" y="111" width="1438" height="80" as="geometry" />
        </mxCell>
        <mxCell id="OI2a_IwAasmnU9GuNSPJ-164" value="" style="rounded=0;whiteSpace=wrap;html=1;" vertex="1" parent="OI2a_IwAasmnU9GuNSPJ-159">
          <mxGeometry x="60" y="232.25" width="328" height="367" as="geometry" />
        </mxCell>
        <mxCell id="OI2a_IwAasmnU9GuNSPJ-165" value="" style="sketch=0;outlineConnect=0;fontColor=#232F3E;gradientColor=none;fillColor=#008CFF;strokeColor=none;dashed=0;verticalLabelPosition=bottom;verticalAlign=top;align=center;html=1;fontSize=12;fontStyle=0;aspect=fixed;pointerEvents=1;shape=mxgraph.aws4.user;" vertex="1" parent="OI2a_IwAasmnU9GuNSPJ-159">
          <mxGeometry x="133" y="312" width="182" height="182" as="geometry" />
        </mxCell>
        <mxCell id="OI2a_IwAasmnU9GuNSPJ-166" value="" style="whiteSpace=wrap;html=1;aspect=fixed;" vertex="1" parent="OI2a_IwAasmnU9GuNSPJ-159">
          <mxGeometry x="319.5" y="529.75" width="60.5" height="60.5" as="geometry" />
        </mxCell>
        <mxCell id="OI2a_IwAasmnU9GuNSPJ-167" value="" style="shape=image;html=1;verticalAlign=top;verticalLabelPosition=bottom;labelBackgroundColor=#ffffff;imageAspect=0;aspect=fixed;image=https://cdn4.iconfinder.com/data/icons/48-bubbles/48/25.Camera-Front-128.png" vertex="1" parent="OI2a_IwAasmnU9GuNSPJ-159">
          <mxGeometry x="325.5" y="535.75" width="48.5" height="48.5" as="geometry" />
        </mxCell>
        <mxCell id="OI2a_IwAasmnU9GuNSPJ-168" value="" style="verticalLabelPosition=bottom;shadow=0;dashed=0;align=center;html=1;verticalAlign=top;strokeWidth=1;shape=mxgraph.mockup.navigation.scrollBar;strokeColor=#999999;barPos=94.294;fillColor2=#99ddff;strokeColor2=none;direction=north;" vertex="1" parent="OI2a_IwAasmnU9GuNSPJ-159">
          <mxGeometry x="1406" y="199" width="20" height="635" as="geometry" />
        </mxCell>
        <mxCell id="OI2a_IwAasmnU9GuNSPJ-169" value="&lt;font style=&quot;font-size: 24px;&quot;&gt;&lt;b style=&quot;&quot;&gt;INFORMAZIONI PROFILO&lt;/b&gt;&lt;/font&gt;" style="text;html=1;align=center;verticalAlign=middle;whiteSpace=wrap;rounded=0;" vertex="1" parent="OI2a_IwAasmnU9GuNSPJ-159">
          <mxGeometry x="506" y="232.25" width="296" height="30" as="geometry" />
        </mxCell>
        <mxCell id="OI2a_IwAasmnU9GuNSPJ-170" value="&lt;b&gt;&lt;font style=&quot;font-size: 18px;&quot;&gt;NOME&lt;/font&gt;&lt;/b&gt;" style="text;html=1;align=center;verticalAlign=middle;whiteSpace=wrap;rounded=0;" vertex="1" parent="OI2a_IwAasmnU9GuNSPJ-159">
          <mxGeometry x="506" y="287" width="60" height="30" as="geometry" />
        </mxCell>
        <mxCell id="OI2a_IwAasmnU9GuNSPJ-171" value="&lt;font style=&quot;font-size: 18px;&quot;&gt;...&lt;/font&gt;" style="rounded=0;whiteSpace=wrap;html=1;" vertex="1" parent="OI2a_IwAasmnU9GuNSPJ-159">
          <mxGeometry x="509" y="321" width="310" height="44" as="geometry" />
        </mxCell>
        <mxCell id="OI2a_IwAasmnU9GuNSPJ-172" value="&lt;font style=&quot;font-size: 18px;&quot;&gt;...&lt;/font&gt;" style="rounded=0;whiteSpace=wrap;html=1;" vertex="1" parent="OI2a_IwAasmnU9GuNSPJ-159">
          <mxGeometry x="509" y="436.5" width="310" height="44" as="geometry" />
        </mxCell>
        <mxCell id="OI2a_IwAasmnU9GuNSPJ-173" value="&lt;b&gt;&lt;font style=&quot;font-size: 18px;&quot;&gt;COGNOME&lt;/font&gt;&lt;/b&gt;" style="text;html=1;align=center;verticalAlign=middle;whiteSpace=wrap;rounded=0;" vertex="1" parent="OI2a_IwAasmnU9GuNSPJ-159">
          <mxGeometry x="506" y="400.75" width="104" height="30" as="geometry" />
        </mxCell>
        <mxCell id="OI2a_IwAasmnU9GuNSPJ-174" value="&lt;span style=&quot;font-size: 18px;&quot;&gt;&lt;b&gt;DATA DI NASCITA&lt;/b&gt;&lt;/span&gt;" style="text;html=1;align=center;verticalAlign=middle;whiteSpace=wrap;rounded=0;" vertex="1" parent="OI2a_IwAasmnU9GuNSPJ-159">
          <mxGeometry x="509" y="524" width="162" height="30" as="geometry" />
        </mxCell>
        <mxCell id="OI2a_IwAasmnU9GuNSPJ-175" value="Giorno&lt;span style=&quot;color: rgba(0, 0, 0, 0); font-family: monospace; font-size: 0px;&quot;&gt;%3CmxGraphModel%3E%3Croot%3E%3CmxCell%20id%3D%220%22%2F%3E%3CmxCell%20id%3D%221%22%20parent%3D%220%22%2F%3E%3CmxCell%20id%3D%222%22%20value%3D%22Stanza%22%20style%3D%22strokeWidth%3D1%3Bshadow%3D0%3Bdashed%3D0%3Balign%3Dcenter%3Bhtml%3D1%3Bshape%3Dmxgraph.mockup.forms.comboBox%3BstrokeColor%3D%23999999%3BfillColor%3D%23ddeeff%3Balign%3Dleft%3BfillColor2%3D%23aaddff%3BmainText%3D%3BfontColor%3D%23666666%3BfontSize%3D17%3BspacingLeft%3D3%3B%22%20vertex%3D%221%22%20parent%3D%221%22%3E%3CmxGeometry%20x%3D%222238%22%20y%3D%22790%22%20width%3D%22206%22%20height%3D%2250%22%20as%3D%22geometry%22%2F%3E%3C%2FmxCell%3E%3C%2Froot%3E%3C%2FmxGraphModel%3E&lt;/span&gt;" style="strokeWidth=1;shadow=0;dashed=0;align=center;html=1;shape=mxgraph.mockup.forms.comboBox;strokeColor=#999999;fillColor=#ddeeff;align=left;fillColor2=#aaddff;mainText=;fontColor=#666666;fontSize=17;spacingLeft=3;" vertex="1" parent="OI2a_IwAasmnU9GuNSPJ-159">
          <mxGeometry x="509" y="560.25" width="112" height="39" as="geometry" />
        </mxCell>
        <mxCell id="OI2a_IwAasmnU9GuNSPJ-176" value="Mese" style="strokeWidth=1;shadow=0;dashed=0;align=center;html=1;shape=mxgraph.mockup.forms.comboBox;strokeColor=#999999;fillColor=#ddeeff;align=left;fillColor2=#aaddff;mainText=;fontColor=#666666;fontSize=17;spacingLeft=3;" vertex="1" parent="OI2a_IwAasmnU9GuNSPJ-159">
          <mxGeometry x="639" y="560.25" width="136" height="39" as="geometry" />
        </mxCell>
        <mxCell id="OI2a_IwAasmnU9GuNSPJ-177" value="Anno" style="strokeWidth=1;shadow=0;dashed=0;align=center;html=1;shape=mxgraph.mockup.forms.comboBox;strokeColor=#999999;fillColor=#ddeeff;align=left;fillColor2=#aaddff;mainText=;fontColor=#666666;fontSize=17;spacingLeft=3;" vertex="1" parent="OI2a_IwAasmnU9GuNSPJ-159">
          <mxGeometry x="796" y="560.25" width="136" height="39" as="geometry" />
        </mxCell>
        <mxCell id="OI2a_IwAasmnU9GuNSPJ-178" value="&lt;b&gt;&lt;font style=&quot;font-size: 18px;&quot;&gt;EMAIL&lt;/font&gt;&lt;/b&gt;" style="text;html=1;align=center;verticalAlign=middle;whiteSpace=wrap;rounded=0;" vertex="1" parent="OI2a_IwAasmnU9GuNSPJ-159">
          <mxGeometry x="514" y="644" width="63" height="30" as="geometry" />
        </mxCell>
        <mxCell id="OI2a_IwAasmnU9GuNSPJ-179" value="" style="rounded=0;whiteSpace=wrap;html=1;" vertex="1" parent="OI2a_IwAasmnU9GuNSPJ-159">
          <mxGeometry x="514" y="674" width="310" height="44" as="geometry" />
        </mxCell>
        <mxCell id="OI2a_IwAasmnU9GuNSPJ-180" value="SALVA" style="strokeWidth=1;shadow=0;dashed=0;align=center;html=1;shape=mxgraph.mockup.buttons.button;strokeColor=#666666;fontColor=#ffffff;mainText=;buttonStyle=round;fontSize=17;fontStyle=1;fillColor=#FF0000;whiteSpace=wrap;" vertex="1" parent="OI2a_IwAasmnU9GuNSPJ-159">
          <mxGeometry x="238" y="612" width="150" height="50" as="geometry" />
        </mxCell>
        <mxCell id="OI2a_IwAasmnU9GuNSPJ-181" value="ANNULLA" style="strokeWidth=1;shadow=0;dashed=0;align=center;html=1;shape=mxgraph.mockup.buttons.button;mainText=;buttonStyle=round;fontSize=17;fontStyle=1;whiteSpace=wrap;" vertex="1" parent="OI2a_IwAasmnU9GuNSPJ-159">
          <mxGeometry x="72" y="612" width="150" height="50" as="geometry" />
        </mxCell>
        <mxCell id="OI2a_IwAasmnU9GuNSPJ-309" value="" style="group" vertex="1" connectable="0" parent="OI2a_IwAasmnU9GuNSPJ-159">
          <mxGeometry x="1320" y="132" width="100" height="34" as="geometry" />
        </mxCell>
        <mxCell id="OI2a_IwAasmnU9GuNSPJ-310" value="" style="sketch=0;outlineConnect=0;fontColor=#232F3E;gradientColor=none;fillColor=#232F3D;strokeColor=none;dashed=0;verticalLabelPosition=bottom;verticalAlign=top;align=center;html=1;fontSize=12;fontStyle=0;aspect=fixed;pointerEvents=1;shape=mxgraph.aws4.user;" vertex="1" parent="OI2a_IwAasmnU9GuNSPJ-309">
          <mxGeometry width="25" height="25" as="geometry" />
        </mxCell>
        <mxCell id="OI2a_IwAasmnU9GuNSPJ-311" value="&lt;font style=&quot;font-size: 18px;&quot;&gt;&lt;b&gt;Mario&lt;/b&gt;&lt;/font&gt;" style="text;html=1;align=center;verticalAlign=middle;resizable=0;points=[];autosize=1;strokeColor=none;fillColor=none;" vertex="1" parent="OI2a_IwAasmnU9GuNSPJ-309">
          <mxGeometry x="29" width="66" height="34" as="geometry" />
        </mxCell>
        <mxCell id="OI2a_IwAasmnU9GuNSPJ-312" value="" style="group" vertex="1" connectable="0" parent="OI2a_IwAasmnU9GuNSPJ-159">
          <mxGeometry x="1133" y="132" width="161" height="34" as="geometry" />
        </mxCell>
        <mxCell id="OI2a_IwAasmnU9GuNSPJ-313" value="&lt;font style=&quot;font-size: 18px;&quot;&gt;&lt;b&gt;I miei preferiti&lt;/b&gt;&lt;/font&gt;" style="text;html=1;align=center;verticalAlign=middle;resizable=0;points=[];autosize=1;strokeColor=none;fillColor=none;" vertex="1" parent="OI2a_IwAasmnU9GuNSPJ-312">
          <mxGeometry x="25" width="136" height="34" as="geometry" />
        </mxCell>
        <mxCell id="OI2a_IwAasmnU9GuNSPJ-314" value="" style="verticalLabelPosition=bottom;verticalAlign=top;html=1;shape=mxgraph.basic.heart;aspect=fixed;fillColor=#f8cecc;strokeColor=#b85450;" vertex="1" parent="OI2a_IwAasmnU9GuNSPJ-312">
          <mxGeometry width="25" height="25" as="geometry" />
        </mxCell>
        <mxCell id="OI2a_IwAasmnU9GuNSPJ-316" value="" style="image;html=1;image=img/lib/atlassian/Atlassian_Logo.svg;" vertex="1" parent="OI2a_IwAasmnU9GuNSPJ-159">
          <mxGeometry x="10" y="124.5" width="50" height="49" as="geometry" />
        </mxCell>
        <mxCell id="OI2a_IwAasmnU9GuNSPJ-182" value="" style="strokeWidth=1;shadow=0;dashed=0;align=center;html=1;shape=mxgraph.mockup.containers.browserWindow;rSize=0;strokeColor=#666666;strokeColor2=#008cff;strokeColor3=#c4c4c4;mainText=,;recursiveResize=0;" vertex="1" parent="1">
          <mxGeometry x="1671" y="2119" width="1440" height="843" as="geometry" />
        </mxCell>
        <mxCell id="OI2a_IwAasmnU9GuNSPJ-183" value="Immobili" style="strokeWidth=1;shadow=0;dashed=0;align=center;html=1;shape=mxgraph.mockup.containers.anchor;fontSize=17;fontColor=#666666;align=left;whiteSpace=wrap;" vertex="1" parent="OI2a_IwAasmnU9GuNSPJ-182">
          <mxGeometry x="60" y="12" width="110" height="26" as="geometry" />
        </mxCell>
        <mxCell id="OI2a_IwAasmnU9GuNSPJ-184" value="https://www.unina-estates25.it/annunci/offerta/" style="strokeWidth=1;shadow=0;dashed=0;align=center;html=1;shape=mxgraph.mockup.containers.anchor;rSize=0;fontSize=17;fontColor=#666666;align=left;" vertex="1" parent="OI2a_IwAasmnU9GuNSPJ-182">
          <mxGeometry x="130" y="60" width="250" height="26" as="geometry" />
        </mxCell>
        <mxCell id="OI2a_IwAasmnU9GuNSPJ-185" value="" style="verticalLabelPosition=bottom;verticalAlign=top;html=1;shape=mxgraph.basic.rect;fillColor2=none;strokeWidth=1;size=20;indent=5;fillColor=#fff2cc;strokeColor=#d6b656;" vertex="1" parent="OI2a_IwAasmnU9GuNSPJ-182">
          <mxGeometry x="2" y="111" width="1438" height="80" as="geometry" />
        </mxCell>
        <mxCell id="OI2a_IwAasmnU9GuNSPJ-187" value="" style="rounded=0;whiteSpace=wrap;html=1;" vertex="1" parent="OI2a_IwAasmnU9GuNSPJ-182">
          <mxGeometry x="97" y="229.63" width="1240" height="233.75" as="geometry" />
        </mxCell>
        <mxCell id="OI2a_IwAasmnU9GuNSPJ-203" value="" style="shape=image;html=1;verticalAlign=top;verticalLabelPosition=bottom;labelBackgroundColor=#ffffff;imageAspect=0;aspect=fixed;image=https://cdn4.iconfinder.com/data/icons/ionicons/512/icon-image-128.png" vertex="1" parent="OI2a_IwAasmnU9GuNSPJ-182">
          <mxGeometry x="109" y="221.01" width="251" height="251" as="geometry" />
        </mxCell>
        <mxCell id="OI2a_IwAasmnU9GuNSPJ-212" value="&lt;b&gt;&lt;font style=&quot;font-size: 22px;&quot;&gt;TITOLO INSERZIONE&lt;/font&gt;&lt;/b&gt;" style="text;html=1;align=center;verticalAlign=middle;whiteSpace=wrap;rounded=0;" vertex="1" parent="OI2a_IwAasmnU9GuNSPJ-182">
          <mxGeometry x="360" y="264" width="261" height="30" as="geometry" />
        </mxCell>
        <mxCell id="OI2a_IwAasmnU9GuNSPJ-213" value="&lt;b&gt;&lt;font style=&quot;font-size: 22px;&quot;&gt;da € xx.xxx,yy&lt;/font&gt;&lt;/b&gt;" style="text;html=1;align=center;verticalAlign=middle;whiteSpace=wrap;rounded=0;" vertex="1" parent="OI2a_IwAasmnU9GuNSPJ-182">
          <mxGeometry x="326" y="334.12" width="261" height="30" as="geometry" />
        </mxCell>
        <mxCell id="OI2a_IwAasmnU9GuNSPJ-214" value="" style="verticalLabelPosition=bottom;shadow=0;dashed=0;align=center;html=1;verticalAlign=top;strokeWidth=1;shape=mxgraph.mockup.markup.line;strokeColor=#999999;direction=north;" vertex="1" parent="OI2a_IwAasmnU9GuNSPJ-182">
          <mxGeometry x="710" y="263" width="20" height="172" as="geometry" />
        </mxCell>
        <mxCell id="OI2a_IwAasmnU9GuNSPJ-222" value="&lt;b&gt;&lt;font style=&quot;font-size: 26px;&quot;&gt;INSERISCI OFFERTA&lt;/font&gt;&lt;/b&gt;" style="text;html=1;align=center;verticalAlign=middle;whiteSpace=wrap;rounded=0;" vertex="1" parent="OI2a_IwAasmnU9GuNSPJ-182">
          <mxGeometry x="589.5" y="535" width="261" height="30" as="geometry" />
        </mxCell>
        <mxCell id="OI2a_IwAasmnU9GuNSPJ-223" value="" style="rounded=0;whiteSpace=wrap;html=1;" vertex="1" parent="OI2a_IwAasmnU9GuNSPJ-182">
          <mxGeometry x="609" y="583" width="216" height="60" as="geometry" />
        </mxCell>
        <mxCell id="OI2a_IwAasmnU9GuNSPJ-224" value="INVIA" style="strokeWidth=1;shadow=0;dashed=0;align=center;html=1;shape=mxgraph.mockup.buttons.button;strokeColor=#666666;fontColor=#ffffff;mainText=;buttonStyle=round;fontSize=17;fontStyle=1;fillColor=#FF0000;whiteSpace=wrap;" vertex="1" parent="OI2a_IwAasmnU9GuNSPJ-182">
          <mxGeometry x="728" y="704" width="150" height="50" as="geometry" />
        </mxCell>
        <mxCell id="OI2a_IwAasmnU9GuNSPJ-225" value="ANNULLA" style="strokeWidth=1;shadow=0;dashed=0;align=center;html=1;shape=mxgraph.mockup.buttons.button;mainText=;buttonStyle=round;fontSize=17;fontStyle=1;whiteSpace=wrap;" vertex="1" parent="OI2a_IwAasmnU9GuNSPJ-182">
          <mxGeometry x="562" y="704" width="150" height="50" as="geometry" />
        </mxCell>
        <mxCell id="OI2a_IwAasmnU9GuNSPJ-215" value="" style="rounded=0;whiteSpace=wrap;html=1;" vertex="1" parent="OI2a_IwAasmnU9GuNSPJ-182">
          <mxGeometry x="817" y="263" width="452" height="167" as="geometry" />
        </mxCell>
        <mxCell id="OI2a_IwAasmnU9GuNSPJ-217" value="&lt;b&gt;&lt;font style=&quot;font-size: 22px;&quot;&gt;xx mt&lt;/font&gt;&lt;/b&gt;&lt;span style=&quot;color: rgb(55, 60, 71); font-family: Inter, system-ui, -apple-system, BlinkMacSystemFont, &amp;quot;Segoe UI&amp;quot;, Roboto, &amp;quot;Helvetica Neue&amp;quot;, Arial, sans-serif; font-variant-ligatures: no-common-ligatures; text-align: start; text-wrap-mode: nowrap;&quot;&gt;&lt;b style=&quot;&quot;&gt;&lt;font style=&quot;font-size: 22px;&quot;&gt;²&lt;/font&gt;&lt;/b&gt;&lt;/span&gt;" style="text;html=1;align=center;verticalAlign=middle;whiteSpace=wrap;rounded=0;" vertex="1" parent="OI2a_IwAasmnU9GuNSPJ-182">
          <mxGeometry x="869" y="291" width="121" height="30" as="geometry" />
        </mxCell>
        <mxCell id="OI2a_IwAasmnU9GuNSPJ-216" value="" style="shape=image;html=1;verticalAlign=top;verticalLabelPosition=bottom;labelBackgroundColor=#ffffff;imageAspect=0;aspect=fixed;image=https://cdn0.iconfinder.com/data/icons/education-1006/32/scale_size_ruler_centimeter_millimeter_geometry_horizontal_meter_inch_geometric-128.png" vertex="1" parent="OI2a_IwAasmnU9GuNSPJ-182">
          <mxGeometry x="841" y="281" width="40" height="40" as="geometry" />
        </mxCell>
        <mxCell id="OI2a_IwAasmnU9GuNSPJ-221" value="&lt;span style=&quot;font-size: 22px;&quot;&gt;&lt;b&gt;&amp;lt;category&amp;gt;&lt;/b&gt;&lt;/span&gt;" style="text;html=1;align=center;verticalAlign=middle;whiteSpace=wrap;rounded=0;" vertex="1" parent="OI2a_IwAasmnU9GuNSPJ-182">
          <mxGeometry x="886" y="379" width="144" height="30" as="geometry" />
        </mxCell>
        <mxCell id="OI2a_IwAasmnU9GuNSPJ-220" value="" style="shape=image;html=1;verticalAlign=top;verticalLabelPosition=bottom;labelBackgroundColor=#ffffff;imageAspect=0;aspect=fixed;image=https://cdn4.iconfinder.com/data/icons/48-bubbles/48/03.Office-128.png" vertex="1" parent="OI2a_IwAasmnU9GuNSPJ-182">
          <mxGeometry x="841" y="364.1199999999999" width="46" height="46" as="geometry" />
        </mxCell>
        <mxCell id="OI2a_IwAasmnU9GuNSPJ-219" value="&lt;span style=&quot;font-size: 22px;&quot;&gt;&lt;b&gt;x Locali&lt;/b&gt;&lt;/span&gt;" style="text;html=1;align=center;verticalAlign=middle;whiteSpace=wrap;rounded=0;" vertex="1" parent="OI2a_IwAasmnU9GuNSPJ-182">
          <mxGeometry x="1122" y="291" width="121" height="30" as="geometry" />
        </mxCell>
        <mxCell id="OI2a_IwAasmnU9GuNSPJ-218" value="" style="shape=image;html=1;verticalAlign=top;verticalLabelPosition=bottom;labelBackgroundColor=#ffffff;imageAspect=0;aspect=fixed;image=https://cdn1.iconfinder.com/data/icons/travel-and-leisure-vol-1/512/4-128.png" vertex="1" parent="OI2a_IwAasmnU9GuNSPJ-182">
          <mxGeometry x="1082" y="281" width="43" height="43" as="geometry" />
        </mxCell>
        <mxCell id="OI2a_IwAasmnU9GuNSPJ-317" value="" style="image;html=1;image=img/lib/atlassian/Atlassian_Logo.svg;" vertex="1" parent="OI2a_IwAasmnU9GuNSPJ-182">
          <mxGeometry x="10" y="126.5" width="50" height="49" as="geometry" />
        </mxCell>
        <mxCell id="OI2a_IwAasmnU9GuNSPJ-206" value="" style="group" vertex="1" connectable="0" parent="1">
          <mxGeometry x="3003" y="2250" width="100" height="34" as="geometry" />
        </mxCell>
        <mxCell id="OI2a_IwAasmnU9GuNSPJ-207" value="" style="sketch=0;outlineConnect=0;fontColor=#232F3E;gradientColor=none;fillColor=#232F3D;strokeColor=none;dashed=0;verticalLabelPosition=bottom;verticalAlign=top;align=center;html=1;fontSize=12;fontStyle=0;aspect=fixed;pointerEvents=1;shape=mxgraph.aws4.user;" vertex="1" parent="OI2a_IwAasmnU9GuNSPJ-206">
          <mxGeometry width="25" height="25" as="geometry" />
        </mxCell>
        <mxCell id="OI2a_IwAasmnU9GuNSPJ-208" value="&lt;font style=&quot;font-size: 18px;&quot;&gt;&lt;b&gt;Mario&lt;/b&gt;&lt;/font&gt;" style="text;html=1;align=center;verticalAlign=middle;resizable=0;points=[];autosize=1;strokeColor=none;fillColor=none;" vertex="1" parent="OI2a_IwAasmnU9GuNSPJ-206">
          <mxGeometry x="29" width="66" height="34" as="geometry" />
        </mxCell>
        <mxCell id="OI2a_IwAasmnU9GuNSPJ-209" value="" style="group" vertex="1" connectable="0" parent="1">
          <mxGeometry x="2816" y="2250" width="161" height="34" as="geometry" />
        </mxCell>
        <mxCell id="OI2a_IwAasmnU9GuNSPJ-210" value="&lt;font style=&quot;font-size: 18px;&quot;&gt;&lt;b&gt;I miei preferiti&lt;/b&gt;&lt;/font&gt;" style="text;html=1;align=center;verticalAlign=middle;resizable=0;points=[];autosize=1;strokeColor=none;fillColor=none;" vertex="1" parent="OI2a_IwAasmnU9GuNSPJ-209">
          <mxGeometry x="25" width="136" height="34" as="geometry" />
        </mxCell>
        <mxCell id="OI2a_IwAasmnU9GuNSPJ-211" value="" style="verticalLabelPosition=bottom;verticalAlign=top;html=1;shape=mxgraph.basic.heart;aspect=fixed;fillColor=#f8cecc;strokeColor=#b85450;" vertex="1" parent="OI2a_IwAasmnU9GuNSPJ-209">
          <mxGeometry width="25" height="25" as="geometry" />
        </mxCell>
        <mxCell id="OI2a_IwAasmnU9GuNSPJ-247" value="" style="strokeWidth=1;shadow=0;dashed=0;align=center;html=1;shape=mxgraph.mockup.containers.browserWindow;rSize=0;strokeColor=#666666;strokeColor2=#008cff;strokeColor3=#c4c4c4;mainText=,;recursiveResize=0;" vertex="1" parent="1">
          <mxGeometry x="1675" y="3053" width="1440" height="843" as="geometry" />
        </mxCell>
        <mxCell id="OI2a_IwAasmnU9GuNSPJ-248" value="Immobili" style="strokeWidth=1;shadow=0;dashed=0;align=center;html=1;shape=mxgraph.mockup.containers.anchor;fontSize=17;fontColor=#666666;align=left;whiteSpace=wrap;" vertex="1" parent="OI2a_IwAasmnU9GuNSPJ-247">
          <mxGeometry x="60" y="12" width="110" height="26" as="geometry" />
        </mxCell>
        <mxCell id="OI2a_IwAasmnU9GuNSPJ-249" value="https://www.unina-estates25.it/storico/" style="strokeWidth=1;shadow=0;dashed=0;align=center;html=1;shape=mxgraph.mockup.containers.anchor;rSize=0;fontSize=17;fontColor=#666666;align=left;" vertex="1" parent="OI2a_IwAasmnU9GuNSPJ-247">
          <mxGeometry x="130" y="60" width="250" height="26" as="geometry" />
        </mxCell>
        <mxCell id="OI2a_IwAasmnU9GuNSPJ-250" value="" style="verticalLabelPosition=bottom;verticalAlign=top;html=1;shape=mxgraph.basic.rect;fillColor2=none;strokeWidth=1;size=20;indent=5;fillColor=#fff2cc;strokeColor=#d6b656;" vertex="1" parent="OI2a_IwAasmnU9GuNSPJ-247">
          <mxGeometry x="2" y="111" width="1438" height="80" as="geometry" />
        </mxCell>
        <mxCell id="OI2a_IwAasmnU9GuNSPJ-252" value="" style="rounded=0;whiteSpace=wrap;html=1;" vertex="1" parent="OI2a_IwAasmnU9GuNSPJ-247">
          <mxGeometry x="97" y="249" width="1240" height="594" as="geometry" />
        </mxCell>
        <mxCell id="OI2a_IwAasmnU9GuNSPJ-274" value="" style="verticalLabelPosition=bottom;shadow=0;dashed=0;align=center;html=1;verticalAlign=top;strokeWidth=1;shape=mxgraph.mockup.navigation.scrollBar;strokeColor=#999999;barPos=94.294;fillColor2=#99ddff;strokeColor2=none;direction=north;" vertex="1" parent="OI2a_IwAasmnU9GuNSPJ-247">
          <mxGeometry x="1409" y="196" width="20" height="635" as="geometry" />
        </mxCell>
        <mxCell id="OI2a_IwAasmnU9GuNSPJ-275" value="&lt;b&gt;&lt;font style=&quot;font-size: 24px;&quot;&gt;STORICO OFFERTE&lt;/font&gt;&lt;/b&gt;" style="text;html=1;align=center;verticalAlign=middle;whiteSpace=wrap;rounded=0;" vertex="1" parent="OI2a_IwAasmnU9GuNSPJ-247">
          <mxGeometry x="87" y="206" width="261" height="29" as="geometry" />
        </mxCell>
        <mxCell id="OI2a_IwAasmnU9GuNSPJ-276" value="" style="endArrow=none;html=1;rounded=0;exitX=0;exitY=0.25;exitDx=0;exitDy=0;entryX=1;entryY=0.25;entryDx=0;entryDy=0;" edge="1" parent="OI2a_IwAasmnU9GuNSPJ-247" source="OI2a_IwAasmnU9GuNSPJ-252" target="OI2a_IwAasmnU9GuNSPJ-252">
          <mxGeometry width="50" height="50" relative="1" as="geometry">
            <mxPoint x="1459" y="854" as="sourcePoint" />
            <mxPoint x="1509" y="804" as="targetPoint" />
          </mxGeometry>
        </mxCell>
        <mxCell id="OI2a_IwAasmnU9GuNSPJ-277" value="" style="endArrow=none;html=1;rounded=0;exitX=0;exitY=0.5;exitDx=0;exitDy=0;entryX=1;entryY=0.5;entryDx=0;entryDy=0;" edge="1" parent="OI2a_IwAasmnU9GuNSPJ-247" source="OI2a_IwAasmnU9GuNSPJ-252" target="OI2a_IwAasmnU9GuNSPJ-252">
          <mxGeometry width="50" height="50" relative="1" as="geometry">
            <mxPoint x="1459" y="854" as="sourcePoint" />
            <mxPoint x="1509" y="804" as="targetPoint" />
          </mxGeometry>
        </mxCell>
        <mxCell id="OI2a_IwAasmnU9GuNSPJ-278" value="" style="endArrow=none;html=1;rounded=0;exitX=0;exitY=0.75;exitDx=0;exitDy=0;entryX=1;entryY=0.75;entryDx=0;entryDy=0;" edge="1" parent="OI2a_IwAasmnU9GuNSPJ-247" source="OI2a_IwAasmnU9GuNSPJ-252" target="OI2a_IwAasmnU9GuNSPJ-252">
          <mxGeometry width="50" height="50" relative="1" as="geometry">
            <mxPoint x="1459" y="854" as="sourcePoint" />
            <mxPoint x="1509" y="804" as="targetPoint" />
          </mxGeometry>
        </mxCell>
        <mxCell id="OI2a_IwAasmnU9GuNSPJ-279" value="" style="shape=image;html=1;verticalAlign=top;verticalLabelPosition=bottom;labelBackgroundColor=#ffffff;imageAspect=0;aspect=fixed;image=https://cdn4.iconfinder.com/data/icons/ionicons/512/icon-image-128.png" vertex="1" parent="OI2a_IwAasmnU9GuNSPJ-247">
          <mxGeometry x="121" y="249" width="146" height="146" as="geometry" />
        </mxCell>
        <mxCell id="OI2a_IwAasmnU9GuNSPJ-280" value="&lt;b&gt;&lt;font style=&quot;font-size: 22px;&quot;&gt;TITOLO INSERZIONE&lt;/font&gt;&lt;/b&gt;" style="text;html=1;align=center;verticalAlign=middle;whiteSpace=wrap;rounded=0;" vertex="1" parent="OI2a_IwAasmnU9GuNSPJ-247">
          <mxGeometry x="280" y="271" width="261" height="30" as="geometry" />
        </mxCell>
        <mxCell id="OI2a_IwAasmnU9GuNSPJ-281" value="&lt;b&gt;&lt;font style=&quot;font-size: 22px;&quot;&gt;da € xx.xxx,yy&lt;/font&gt;&lt;/b&gt;" style="text;html=1;align=center;verticalAlign=middle;whiteSpace=wrap;rounded=0;" vertex="1" parent="OI2a_IwAasmnU9GuNSPJ-247">
          <mxGeometry x="249" y="327" width="261" height="30" as="geometry" />
        </mxCell>
        <mxCell id="OI2a_IwAasmnU9GuNSPJ-282" value="" style="verticalLabelPosition=bottom;shadow=0;dashed=0;align=center;html=1;verticalAlign=top;strokeWidth=1;shape=mxgraph.mockup.markup.line;strokeColor=#999999;direction=north;" vertex="1" parent="OI2a_IwAasmnU9GuNSPJ-247">
          <mxGeometry x="707" y="284" width="20" height="76" as="geometry" />
        </mxCell>
        <mxCell id="OI2a_IwAasmnU9GuNSPJ-283" value="" style="rounded=0;whiteSpace=wrap;html=1;" vertex="1" parent="OI2a_IwAasmnU9GuNSPJ-247">
          <mxGeometry x="760" y="267.75" width="394" height="108.5" as="geometry" />
        </mxCell>
        <mxCell id="OI2a_IwAasmnU9GuNSPJ-284" value="Filtra" style="strokeWidth=1;shadow=0;dashed=0;align=center;html=1;shape=mxgraph.mockup.forms.comboBox;strokeColor=#999999;fillColor=#ddeeff;align=left;fillColor2=#aaddff;mainText=;fontColor=#666666;fontSize=17;spacingLeft=3;" vertex="1" parent="OI2a_IwAasmnU9GuNSPJ-247">
          <mxGeometry x="1197" y="210" width="112" height="25" as="geometry" />
        </mxCell>
        <mxCell id="OI2a_IwAasmnU9GuNSPJ-285" value="&lt;span style=&quot;font-size: 22px;&quot;&gt;&lt;b&gt;Offerta Proposta : xx.xxx,yy&amp;nbsp;&lt;/b&gt;&lt;/span&gt;" style="text;html=1;align=center;verticalAlign=middle;whiteSpace=wrap;rounded=0;" vertex="1" parent="OI2a_IwAasmnU9GuNSPJ-247">
          <mxGeometry x="766" y="278" width="362" height="30" as="geometry" />
        </mxCell>
        <mxCell id="OI2a_IwAasmnU9GuNSPJ-286" value="&lt;span style=&quot;font-size: 22px;&quot;&gt;&lt;b&gt;Data : gg/mm/yyyy&lt;/b&gt;&lt;/span&gt;" style="text;html=1;align=center;verticalAlign=middle;whiteSpace=wrap;rounded=0;" vertex="1" parent="OI2a_IwAasmnU9GuNSPJ-247">
          <mxGeometry x="768" y="324" width="362" height="30" as="geometry" />
        </mxCell>
        <mxCell id="OI2a_IwAasmnU9GuNSPJ-287" value="MODIFICA&lt;span style=&quot;color: rgba(0, 0, 0, 0); font-family: monospace; font-size: 0px; font-weight: 400; text-align: start; text-wrap-mode: nowrap;&quot;&gt;%3CmxGraphModel%3E%3Croot%3E%3CmxCell%20id%3D%220%22%2F%3E%3CmxCell%20id%3D%221%22%20parent%3D%220%22%2F%3E%3CmxCell%20id%3D%222%22%20value%3D%22ANNULLA%22%20style%3D%22strokeWidth%3D1%3Bshadow%3D0%3Bdashed%3D0%3Balign%3Dcenter%3Bhtml%3D1%3Bshape%3Dmxgraph.mockup.buttons.button%3BmainText%3D%3BbuttonStyle%3Dround%3BfontSize%3D17%3BfontStyle%3D1%3BwhiteSpace%3Dwrap%3B%22%20vertex%3D%221%22%20parent%3D%221%22%3E%3CmxGeometry%20x%3D%222233%22%20y%3D%222823%22%20width%3D%22150%22%20height%3D%2250%22%20as%3D%22geometry%22%2F%3E%3C%2FmxCell%3E%3C%2Froot%3E%3C%2FmxGraphModel%3E&lt;/span&gt;&lt;span style=&quot;color: rgba(0, 0, 0, 0); font-family: monospace; font-size: 0px; font-weight: 400; text-align: start; text-wrap-mode: nowrap;&quot;&gt;%3CmxGraphModel%3E%3Croot%3E%3CmxCell%20id%3D%220%22%2F%3E%3CmxCell%20id%3D%221%22%20parent%3D%220%22%2F%3E%3CmxCell%20id%3D%222%22%20value%3D%22ANNULLA%22%20style%3D%22strokeWidth%3D1%3Bshadow%3D0%3Bdashed%3D0%3Balign%3Dcenter%3Bhtml%3D1%3Bshape%3Dmxgraph.mockup.buttons.button%3BmainText%3D%3BbuttonStyle%3Dround%3BfontSize%3D17%3BfontStyle%3D1%3BwhiteSpace%3Dwrap%3B%22%20vertex%3D%221%22%20parent%3D%221%22%3E%3CmxGeometry%20x%3D%222233%22%20y%3D%222823%22%20width%3D%22150%22%20height%3D%2250%22%20as%3D%22geometry%22%2F%3E%3C%2FmxCell%3E%3C%2Froot%3E%3C%2FmxGraphModel%3E&lt;/span&gt;" style="strokeWidth=1;shadow=0;dashed=0;align=center;html=1;shape=mxgraph.mockup.buttons.button;strokeColor=#666666;fontColor=#ffffff;mainText=;buttonStyle=round;fontSize=17;fontStyle=1;fillColor=#FF0000;whiteSpace=wrap;" vertex="1" parent="OI2a_IwAasmnU9GuNSPJ-247">
          <mxGeometry x="1186.5" y="339.25" width="133" height="37" as="geometry" />
        </mxCell>
        <mxCell id="OI2a_IwAasmnU9GuNSPJ-290" value="VISUALIZZA" style="strokeWidth=1;shadow=0;dashed=0;align=center;html=1;shape=mxgraph.mockup.buttons.button;mainText=;buttonStyle=round;fontSize=17;fontStyle=1;whiteSpace=wrap;" vertex="1" parent="OI2a_IwAasmnU9GuNSPJ-247">
          <mxGeometry x="1185" y="267.75" width="136" height="37.25" as="geometry" />
        </mxCell>
        <mxCell id="OI2a_IwAasmnU9GuNSPJ-292" value="" style="shape=image;html=1;verticalAlign=top;verticalLabelPosition=bottom;labelBackgroundColor=#ffffff;imageAspect=0;aspect=fixed;image=https://cdn4.iconfinder.com/data/icons/ionicons/512/icon-image-128.png" vertex="1" parent="OI2a_IwAasmnU9GuNSPJ-247">
          <mxGeometry x="121" y="395" width="146" height="146" as="geometry" />
        </mxCell>
        <mxCell id="OI2a_IwAasmnU9GuNSPJ-293" value="&lt;b&gt;&lt;font style=&quot;font-size: 22px;&quot;&gt;TITOLO INSERZIONE&lt;/font&gt;&lt;/b&gt;" style="text;html=1;align=center;verticalAlign=middle;whiteSpace=wrap;rounded=0;" vertex="1" parent="OI2a_IwAasmnU9GuNSPJ-247">
          <mxGeometry x="280" y="417" width="261" height="30" as="geometry" />
        </mxCell>
        <mxCell id="OI2a_IwAasmnU9GuNSPJ-294" value="&lt;b&gt;&lt;font style=&quot;font-size: 22px;&quot;&gt;da € xx.xxx,yy&lt;/font&gt;&lt;/b&gt;" style="text;html=1;align=center;verticalAlign=middle;whiteSpace=wrap;rounded=0;" vertex="1" parent="OI2a_IwAasmnU9GuNSPJ-247">
          <mxGeometry x="249" y="473" width="261" height="30" as="geometry" />
        </mxCell>
        <mxCell id="OI2a_IwAasmnU9GuNSPJ-295" value="" style="verticalLabelPosition=bottom;shadow=0;dashed=0;align=center;html=1;verticalAlign=top;strokeWidth=1;shape=mxgraph.mockup.markup.line;strokeColor=#999999;direction=north;" vertex="1" parent="OI2a_IwAasmnU9GuNSPJ-247">
          <mxGeometry x="707" y="430" width="20" height="76" as="geometry" />
        </mxCell>
        <mxCell id="OI2a_IwAasmnU9GuNSPJ-296" value="" style="rounded=0;whiteSpace=wrap;html=1;" vertex="1" parent="OI2a_IwAasmnU9GuNSPJ-247">
          <mxGeometry x="760" y="413.75" width="394" height="108.5" as="geometry" />
        </mxCell>
        <mxCell id="OI2a_IwAasmnU9GuNSPJ-297" value="&lt;span style=&quot;font-size: 22px;&quot;&gt;&lt;b&gt;Offerta Proposta : xx.xxx,yy&amp;nbsp;&lt;/b&gt;&lt;/span&gt;" style="text;html=1;align=center;verticalAlign=middle;whiteSpace=wrap;rounded=0;" vertex="1" parent="OI2a_IwAasmnU9GuNSPJ-247">
          <mxGeometry x="766" y="424" width="362" height="30" as="geometry" />
        </mxCell>
        <mxCell id="OI2a_IwAasmnU9GuNSPJ-298" value="&lt;span style=&quot;font-size: 22px;&quot;&gt;&lt;b&gt;Data : gg/mm/yyyy&lt;/b&gt;&lt;/span&gt;" style="text;html=1;align=center;verticalAlign=middle;whiteSpace=wrap;rounded=0;" vertex="1" parent="OI2a_IwAasmnU9GuNSPJ-247">
          <mxGeometry x="768" y="470" width="362" height="30" as="geometry" />
        </mxCell>
        <mxCell id="OI2a_IwAasmnU9GuNSPJ-299" value="MODIFICA&lt;span style=&quot;color: rgba(0, 0, 0, 0); font-family: monospace; font-size: 0px; font-weight: 400; text-align: start; text-wrap-mode: nowrap;&quot;&gt;%3CmxGraphModel%3E%3Croot%3E%3CmxCell%20id%3D%220%22%2F%3E%3CmxCell%20id%3D%221%22%20parent%3D%220%22%2F%3E%3CmxCell%20id%3D%222%22%20value%3D%22ANNULLA%22%20style%3D%22strokeWidth%3D1%3Bshadow%3D0%3Bdashed%3D0%3Balign%3Dcenter%3Bhtml%3D1%3Bshape%3Dmxgraph.mockup.buttons.button%3BmainText%3D%3BbuttonStyle%3Dround%3BfontSize%3D17%3BfontStyle%3D1%3BwhiteSpace%3Dwrap%3B%22%20vertex%3D%221%22%20parent%3D%221%22%3E%3CmxGeometry%20x%3D%222233%22%20y%3D%222823%22%20width%3D%22150%22%20height%3D%2250%22%20as%3D%22geometry%22%2F%3E%3C%2FmxCell%3E%3C%2Froot%3E%3C%2FmxGraphModel%3E&lt;/span&gt;&lt;span style=&quot;color: rgba(0, 0, 0, 0); font-family: monospace; font-size: 0px; font-weight: 400; text-align: start; text-wrap-mode: nowrap;&quot;&gt;%3CmxGraphModel%3E%3Croot%3E%3CmxCell%20id%3D%220%22%2F%3E%3CmxCell%20id%3D%221%22%20parent%3D%220%22%2F%3E%3CmxCell%20id%3D%222%22%20value%3D%22ANNULLA%22%20style%3D%22strokeWidth%3D1%3Bshadow%3D0%3Bdashed%3D0%3Balign%3Dcenter%3Bhtml%3D1%3Bshape%3Dmxgraph.mockup.buttons.button%3BmainText%3D%3BbuttonStyle%3Dround%3BfontSize%3D17%3BfontStyle%3D1%3BwhiteSpace%3Dwrap%3B%22%20vertex%3D%221%22%20parent%3D%221%22%3E%3CmxGeometry%20x%3D%222233%22%20y%3D%222823%22%20width%3D%22150%22%20height%3D%2250%22%20as%3D%22geometry%22%2F%3E%3C%2FmxCell%3E%3C%2Froot%3E%3C%2FmxGraphModel%3E&lt;/span&gt;" style="strokeWidth=1;shadow=0;dashed=0;align=center;html=1;shape=mxgraph.mockup.buttons.button;strokeColor=#666666;fontColor=#ffffff;mainText=;buttonStyle=round;fontSize=17;fontStyle=1;fillColor=#FF0000;whiteSpace=wrap;" vertex="1" parent="OI2a_IwAasmnU9GuNSPJ-247">
          <mxGeometry x="1186.5" y="485.25" width="133" height="37" as="geometry" />
        </mxCell>
        <mxCell id="OI2a_IwAasmnU9GuNSPJ-300" value="VISUALIZZA" style="strokeWidth=1;shadow=0;dashed=0;align=center;html=1;shape=mxgraph.mockup.buttons.button;mainText=;buttonStyle=round;fontSize=17;fontStyle=1;whiteSpace=wrap;" vertex="1" parent="OI2a_IwAasmnU9GuNSPJ-247">
          <mxGeometry x="1185" y="413.75" width="136" height="37.25" as="geometry" />
        </mxCell>
        <mxCell id="OI2a_IwAasmnU9GuNSPJ-301" value="&lt;font style=&quot;font-size: 36px;&quot;&gt;...&lt;/font&gt;" style="text;html=1;align=center;verticalAlign=middle;whiteSpace=wrap;rounded=0;rotation=-90;" vertex="1" parent="OI2a_IwAasmnU9GuNSPJ-247">
          <mxGeometry x="667" y="610" width="60" height="30" as="geometry" />
        </mxCell>
        <mxCell id="OI2a_IwAasmnU9GuNSPJ-302" value="&lt;font style=&quot;font-size: 36px;&quot;&gt;...&lt;/font&gt;" style="text;html=1;align=center;verticalAlign=middle;whiteSpace=wrap;rounded=0;rotation=-90;" vertex="1" parent="OI2a_IwAasmnU9GuNSPJ-247">
          <mxGeometry x="667" y="766" width="60" height="30" as="geometry" />
        </mxCell>
        <mxCell id="OI2a_IwAasmnU9GuNSPJ-318" value="" style="image;html=1;image=img/lib/atlassian/Atlassian_Logo.svg;" vertex="1" parent="OI2a_IwAasmnU9GuNSPJ-247">
          <mxGeometry x="10" y="126.5" width="50" height="49" as="geometry" />
        </mxCell>
        <mxCell id="OI2a_IwAasmnU9GuNSPJ-268" value="" style="group" vertex="1" connectable="0" parent="1">
          <mxGeometry x="3008" y="3183" width="100" height="34" as="geometry" />
        </mxCell>
        <mxCell id="OI2a_IwAasmnU9GuNSPJ-269" value="" style="sketch=0;outlineConnect=0;fontColor=#232F3E;gradientColor=none;fillColor=#232F3D;strokeColor=none;dashed=0;verticalLabelPosition=bottom;verticalAlign=top;align=center;html=1;fontSize=12;fontStyle=0;aspect=fixed;pointerEvents=1;shape=mxgraph.aws4.user;" vertex="1" parent="OI2a_IwAasmnU9GuNSPJ-268">
          <mxGeometry width="25" height="25" as="geometry" />
        </mxCell>
        <mxCell id="OI2a_IwAasmnU9GuNSPJ-270" value="&lt;font style=&quot;font-size: 18px;&quot;&gt;&lt;b&gt;Mario&lt;/b&gt;&lt;/font&gt;" style="text;html=1;align=center;verticalAlign=middle;resizable=0;points=[];autosize=1;strokeColor=none;fillColor=none;" vertex="1" parent="OI2a_IwAasmnU9GuNSPJ-268">
          <mxGeometry x="29" width="66" height="34" as="geometry" />
        </mxCell>
        <mxCell id="OI2a_IwAasmnU9GuNSPJ-271" value="" style="group" vertex="1" connectable="0" parent="1">
          <mxGeometry x="2821" y="3183" width="161" height="34" as="geometry" />
        </mxCell>
        <mxCell id="OI2a_IwAasmnU9GuNSPJ-272" value="&lt;font style=&quot;font-size: 18px;&quot;&gt;&lt;b&gt;I miei preferiti&lt;/b&gt;&lt;/font&gt;" style="text;html=1;align=center;verticalAlign=middle;resizable=0;points=[];autosize=1;strokeColor=none;fillColor=none;" vertex="1" parent="OI2a_IwAasmnU9GuNSPJ-271">
          <mxGeometry x="25" width="136" height="34" as="geometry" />
        </mxCell>
        <mxCell id="OI2a_IwAasmnU9GuNSPJ-273" value="" style="verticalLabelPosition=bottom;verticalAlign=top;html=1;shape=mxgraph.basic.heart;aspect=fixed;fillColor=#f8cecc;strokeColor=#b85450;" vertex="1" parent="OI2a_IwAasmnU9GuNSPJ-271">
          <mxGeometry width="25" height="25" as="geometry" />
        </mxCell>
      </root>
    </mxGraphModel>
  </diagram>
</mxfile>
